<svg width="350" height="220" viewBox="0 0 350 220" fill="none" xmlns="http://www.w3.org/2000/svg">
<rect width="350" height="220" rx="12" fill="url(#paint0_linear_17_126)"/>
<mask id="mask0_17_126" style="mask-type:alpha" maskUnits="userSpaceOnUse" x="0" y="0" width="350" height="220">
<rect width="350" height="220" rx="12" fill="url(#paint1_linear_17_126)"/>
</mask>
<g mask="url(#mask0_17_126)">
<g filter="url(#filter0_d_17_126)">
<path d="M100 263.025C167.5 287.025 66 14.0252 -31 173.025L-21.5 253.525L100 263.025Z" fill="#FAA03C"/>
</g>
</g>
<mask id="mask1_17_126" style="mask-type:alpha" maskUnits="userSpaceOnUse" x="0" y="0" width="350" height="220">
<rect width="350" height="220" rx="12" fill="url(#paint2_linear_17_126)"/>
</mask>
<g mask="url(#mask1_17_126)">
<g filter="url(#filter1_d_17_126)">
<circle cx="107.5" cy="128.5" r="18.5" fill="#FAA03C"/>
</g>
</g>
<mask id="mask2_17_126" style="mask-type:alpha" maskUnits="userSpaceOnUse" x="0" y="0" width="350" height="220">
<rect width="350" height="220" rx="12" fill="url(#paint3_linear_17_126)"/>
</mask>
<g mask="url(#mask2_17_126)">
<g filter="url(#filter2_d_17_126)">
<circle cx="125" cy="168" r="8" fill="#FAA03C"/>
</g>
</g>
<path d="M22.764 37.168C21.5 37.168 20.456 36.748 19.632 35.908C18.808 35.068 18.396 34.032 18.396 32.8C18.396 31.56 18.808 30.524 19.632 29.692C20.456 28.852 21.5 28.432 22.764 28.432C23.524 28.432 24.224 28.612 24.864 28.972C25.512 29.324 26.016 29.804 26.376 30.412L24.948 31.24C24.74 30.864 24.444 30.572 24.06 30.364C23.676 30.148 23.244 30.04 22.764 30.04C21.948 30.04 21.288 30.296 20.784 30.808C20.288 31.32 20.04 31.984 20.04 32.8C20.04 33.608 20.288 34.268 20.784 34.78C21.288 35.292 21.948 35.548 22.764 35.548C23.244 35.548 23.676 35.444 24.06 35.236C24.452 35.02 24.748 34.728 24.948 34.36L26.376 35.188C26.016 35.796 25.516 36.28 24.876 36.64C24.236 36.992 23.532 37.168 22.764 37.168ZM28.963 32.032C29.107 31.648 29.343 31.36 29.671 31.168C30.007 30.976 30.379 30.88 30.787 30.88V32.608C30.315 32.552 29.891 32.648 29.515 32.896C29.147 33.144 28.963 33.556 28.963 34.132V37H27.415V31H28.963V32.032ZM32.7777 34.636C32.9857 35.388 33.5497 35.764 34.4697 35.764C35.0617 35.764 35.5097 35.564 35.8137 35.164L37.0617 35.884C36.4697 36.74 35.5977 37.168 34.4457 37.168C33.4537 37.168 32.6577 36.868 32.0577 36.268C31.4577 35.668 31.1577 34.912 31.1577 34C31.1577 33.096 31.4537 32.344 32.0457 31.744C32.6377 31.136 33.3977 30.832 34.3257 30.832C35.2057 30.832 35.9297 31.136 36.4977 31.744C37.0737 32.352 37.3617 33.104 37.3617 34C37.3617 34.2 37.3417 34.412 37.3017 34.636H32.7777ZM32.7537 33.436H35.8137C35.7257 33.028 35.5417 32.724 35.2617 32.524C34.9897 32.324 34.6777 32.224 34.3257 32.224C33.9097 32.224 33.5657 32.332 33.2937 32.548C33.0217 32.756 32.8417 33.052 32.7537 33.436ZM42.9435 28.6H44.4915V37H42.9435V36.292C42.4875 36.876 41.8395 37.168 40.9995 37.168C40.1915 37.168 39.4995 36.864 38.9235 36.256C38.3555 35.64 38.0715 34.888 38.0715 34C38.0715 33.112 38.3555 32.364 38.9235 31.756C39.4995 31.14 40.1915 30.832 40.9995 30.832C41.8395 30.832 42.4875 31.124 42.9435 31.708V28.6ZM40.0875 35.224C40.4075 35.536 40.8075 35.692 41.2875 35.692C41.7675 35.692 42.1635 35.536 42.4755 35.224C42.7875 34.904 42.9435 34.496 42.9435 34C42.9435 33.504 42.7875 33.1 42.4755 32.788C42.1635 32.468 41.7675 32.308 41.2875 32.308C40.8075 32.308 40.4075 32.468 40.0875 32.788C39.7755 33.1 39.6195 33.504 39.6195 34C39.6195 34.496 39.7755 34.904 40.0875 35.224ZM46.6752 30.28C46.4192 30.28 46.1952 30.188 46.0032 30.004C45.8192 29.812 45.7272 29.588 45.7272 29.332C45.7272 29.076 45.8192 28.852 46.0032 28.66C46.1952 28.468 46.4192 28.372 46.6752 28.372C46.9392 28.372 47.1632 28.468 47.3472 28.66C47.5392 28.852 47.6352 29.076 47.6352 29.332C47.6352 29.588 47.5392 29.812 47.3472 30.004C47.1632 30.188 46.9392 30.28 46.6752 30.28ZM45.9072 37V31H47.4552V37H45.9072ZM52.3041 32.488H50.9481V34.984C50.9481 35.192 51.0001 35.344 51.1041 35.44C51.2081 35.536 51.3601 35.592 51.5601 35.608C51.7601 35.616 52.0081 35.612 52.3041 35.596V37C51.2401 37.12 50.4881 37.02 50.0481 36.7C49.6161 36.38 49.4001 35.808 49.4001 34.984V32.488H48.3561V31H49.4001V29.788L50.9481 29.32V31H52.3041V32.488ZM60.5453 37.168C59.2813 37.168 58.2373 36.748 57.4133 35.908C56.5893 35.068 56.1772 34.032 56.1772 32.8C56.1772 31.56 56.5893 30.524 57.4133 29.692C58.2373 28.852 59.2813 28.432 60.5453 28.432C61.3053 28.432 62.0053 28.612 62.6453 28.972C63.2933 29.324 63.7973 29.804 64.1573 30.412L62.7293 31.24C62.5213 30.864 62.2253 30.572 61.8412 30.364C61.4573 30.148 61.0253 30.04 60.5453 30.04C59.7293 30.04 59.0693 30.296 58.5653 30.808C58.0693 31.32 57.8213 31.984 57.8213 32.8C57.8213 33.608 58.0693 34.268 58.5653 34.78C59.0693 35.292 59.7293 35.548 60.5453 35.548C61.0253 35.548 61.4573 35.444 61.8412 35.236C62.2333 35.02 62.5293 34.728 62.7293 34.36L64.1573 35.188C63.7973 35.796 63.2973 36.28 62.6573 36.64C62.0173 36.992 61.3133 37.168 60.5453 37.168ZM69.6977 31H71.2457V37H69.6977V36.292C69.2337 36.876 68.5817 37.168 67.7417 37.168C66.9417 37.168 66.2537 36.864 65.6777 36.256C65.1097 35.64 64.8257 34.888 64.8257 34C64.8257 33.112 65.1097 32.364 65.6777 31.756C66.2537 31.14 66.9417 30.832 67.7417 30.832C68.5817 30.832 69.2337 31.124 69.6977 31.708V31ZM66.8417 35.224C67.1537 35.536 67.5497 35.692 68.0297 35.692C68.5097 35.692 68.9057 35.536 69.2177 35.224C69.5377 34.904 69.6977 34.496 69.6977 34C69.6977 33.504 69.5377 33.1 69.2177 32.788C68.9057 32.468 68.5097 32.308 68.0297 32.308C67.5497 32.308 67.1537 32.468 66.8417 32.788C66.5297 33.1 66.3737 33.504 66.3737 34C66.3737 34.496 66.5297 34.904 66.8417 35.224ZM74.1974 32.032C74.3414 31.648 74.5774 31.36 74.9054 31.168C75.2414 30.976 75.6134 30.88 76.0214 30.88V32.608C75.5494 32.552 75.1254 32.648 74.7494 32.896C74.3814 33.144 74.1974 33.556 74.1974 34.132V37H72.6494V31H74.1974V32.032ZM81.2521 28.6H82.8001V37H81.2521V36.292C80.7961 36.876 80.1481 37.168 79.3081 37.168C78.5001 37.168 77.8081 36.864 77.2321 36.256C76.6641 35.64 76.3801 34.888 76.3801 34C76.3801 33.112 76.6641 32.364 77.2321 31.756C77.8081 31.14 78.5001 30.832 79.3081 30.832C80.1481 30.832 80.7961 31.124 81.2521 31.708V28.6ZM78.3961 35.224C78.7161 35.536 79.1161 35.692 79.5961 35.692C80.0761 35.692 80.4721 35.536 80.7841 35.224C81.0961 34.904 81.2521 34.496 81.2521 34C81.2521 33.504 81.0961 33.1 80.7841 32.788C80.4721 32.468 80.0761 32.308 79.5961 32.308C79.1161 32.308 78.7161 32.468 78.3961 32.788C78.0841 33.1 77.9281 33.504 77.9281 34C77.9281 34.496 78.0841 34.904 78.3961 35.224Z" fill="white"/>
<g clip-path="url(#clip0_17_126)">
<path fill-rule="evenodd" clip-rule="evenodd" d="M300.053 53.1041H313.435V29.2444H300.053V53.1041Z" fill="#FF5F00"/>
<path fill-rule="evenodd" clip-rule="evenodd" d="M300.903 41.1742C300.903 36.3336 303.187 32.0225 306.744 29.2443C304.143 27.2122 300.86 26 297.293 26C288.847 26 282 32.7938 282 41.1742C282 49.5545 288.847 56.3484 297.293 56.3484C300.86 56.3484 304.143 55.1361 306.744 53.104C303.187 50.3255 300.903 46.0147 300.903 41.1742Z" fill="#EB001B"/>
<path fill-rule="evenodd" clip-rule="evenodd" d="M331.011 50.577V49.9882H330.856L330.678 50.3932L330.499 49.9882H330.344V50.577H330.454V50.1327L330.621 50.5159H330.734L330.902 50.1319V50.577H331.011ZM330.029 50.577V50.0885H330.228V49.989H329.722V50.0885H329.921V50.577H330.029ZM331.488 41.1741C331.488 49.5544 324.641 56.3482 316.196 56.3482C312.628 56.3482 309.345 55.136 306.744 53.1039C310.301 50.3258 312.586 46.0146 312.586 41.1741C312.586 36.3339 310.301 32.0228 306.744 29.2442C309.345 27.2121 312.628 25.9999 316.196 25.9999C324.641 25.9999 331.488 32.7937 331.488 41.1741Z" fill="#F79E1B"/>
</g>
<path d="M307.168 189.968C306.6 190.76 305.804 191.156 304.78 191.156C303.756 191.156 302.96 190.76 302.392 189.968C301.824 189.176 301.54 188.12 301.54 186.8C301.54 185.48 301.824 184.424 302.392 183.632C302.96 182.84 303.756 182.444 304.78 182.444C305.804 182.444 306.6 182.84 307.168 183.632C307.736 184.424 308.02 185.48 308.02 186.8C308.02 188.12 307.736 189.176 307.168 189.968ZM303.208 189.212C303.576 189.78 304.1 190.064 304.78 190.064C305.46 190.064 305.984 189.78 306.352 189.212C306.728 188.644 306.916 187.84 306.916 186.8C306.916 185.76 306.728 184.956 306.352 184.388C305.984 183.812 305.46 183.524 304.78 183.524C304.1 183.524 303.576 183.808 303.208 184.376C302.84 184.944 302.656 185.752 302.656 186.8C302.656 187.84 302.84 188.644 303.208 189.212ZM311.787 185.504C312.627 185.504 313.319 185.768 313.863 186.296C314.407 186.816 314.679 187.492 314.679 188.324C314.679 189.156 314.407 189.836 313.863 190.364C313.319 190.892 312.627 191.156 311.787 191.156C310.939 191.156 310.243 190.892 309.699 190.364C309.163 189.836 308.895 189.156 308.895 188.324C308.895 187.676 309.063 187.116 309.399 186.644L312.099 182.6H313.371L311.391 185.528C311.567 185.512 311.699 185.504 311.787 185.504ZM310.491 189.608C310.827 189.928 311.259 190.088 311.787 190.088C312.315 190.088 312.743 189.928 313.071 189.608C313.407 189.28 313.575 188.852 313.575 188.324C313.575 187.796 313.407 187.372 313.071 187.052C312.743 186.732 312.315 186.572 311.787 186.572C311.251 186.572 310.819 186.732 310.491 187.052C310.163 187.372 309.999 187.796 309.999 188.324C309.999 188.852 310.163 189.28 310.491 189.608ZM316.096 192.2H315.472L320.272 181.4H320.896L316.096 192.2ZM321.787 191V190.088L324.751 187.064C325.543 186.272 325.939 185.592 325.939 185.024C325.939 184.552 325.795 184.184 325.507 183.92C325.219 183.656 324.867 183.524 324.451 183.524C323.659 183.524 323.083 183.9 322.723 184.652L321.787 184.1C322.051 183.556 322.415 183.144 322.879 182.864C323.351 182.584 323.871 182.444 324.439 182.444C325.143 182.444 325.755 182.676 326.275 183.14C326.795 183.604 327.055 184.228 327.055 185.012C327.055 185.86 326.555 186.784 325.555 187.784L323.407 189.92H327.211V191H321.787ZM330.001 182.6H330.961V191H329.857V183.8L328.069 184.328L327.793 183.368L330.001 182.6Z" fill="white"/>
<path d="M21.564 106.4H23.004V119H21.348V108.2L18.666 108.992L18.252 107.552L21.564 106.4ZM25.064 119V117.632L29.51 113.096C30.698 111.908 31.292 110.888 31.292 110.036C31.292 109.328 31.076 108.776 30.644 108.38C30.212 107.984 29.684 107.786 29.06 107.786C27.872 107.786 27.008 108.35 26.468 109.478L25.064 108.65C25.46 107.834 26.006 107.216 26.702 106.796C27.41 106.376 28.19 106.166 29.042 106.166C30.098 106.166 31.016 106.514 31.796 107.21C32.576 107.906 32.966 108.842 32.966 110.018C32.966 111.29 32.216 112.676 30.716 114.176L27.494 117.38H33.2V119H25.064ZM39.4204 111.566C40.3804 111.746 41.1664 112.16 41.7784 112.808C42.3904 113.456 42.6964 114.278 42.6964 115.274C42.6964 116.498 42.2764 117.464 41.4364 118.172C40.5964 118.88 39.5764 119.234 38.3764 119.234C37.4164 119.234 36.5644 119.018 35.8204 118.586C35.0764 118.142 34.5484 117.506 34.2364 116.678L35.6404 115.85C36.0124 117.014 36.9244 117.596 38.3764 117.596C39.1564 117.596 39.7924 117.392 40.2844 116.984C40.7764 116.576 41.0224 116.006 41.0224 115.274C41.0224 114.542 40.7764 113.972 40.2844 113.564C39.7924 113.144 39.1564 112.934 38.3764 112.934H37.9444L37.2784 111.908L40.1944 107.966H34.5964V106.4H42.1564V107.876L39.4204 111.566ZM53.7788 115.04V116.606H52.2488V119H50.5748V116.606H44.1488V115.04L48.6668 106.4H50.4668L45.9488 115.04H50.5748V111.476H52.2488V115.04H53.7788Z" fill="white"/>
<path d="M79.86 111.314C81.048 111.314 82.05 111.668 82.866 112.376C83.694 113.072 84.108 114.038 84.108 115.274C84.108 116.498 83.688 117.464 82.848 118.172C82.008 118.88 80.988 119.234 79.788 119.234C78.828 119.234 77.97 119.006 77.214 118.55C76.458 118.082 75.93 117.41 75.63 116.534L77.052 115.724C77.22 116.336 77.544 116.804 78.024 117.128C78.504 117.44 79.092 117.596 79.788 117.596C80.58 117.596 81.222 117.392 81.714 116.984C82.206 116.576 82.452 116.006 82.452 115.274C82.452 114.542 82.206 113.972 81.714 113.564C81.222 113.144 80.592 112.934 79.824 112.934H76.26L76.728 106.4H83.622V107.966H78.24L78.024 111.314H79.86ZM89.6154 110.756C90.8754 110.756 91.9134 111.152 92.7294 111.944C93.5454 112.724 93.9534 113.738 93.9534 114.986C93.9534 116.234 93.5454 117.254 92.7294 118.046C91.9134 118.838 90.8754 119.234 89.6154 119.234C88.3434 119.234 87.2994 118.838 86.4834 118.046C85.6794 117.254 85.2774 116.234 85.2774 114.986C85.2774 114.014 85.5294 113.174 86.0334 112.466L90.0834 106.4H91.9914L89.0214 110.792C89.2854 110.768 89.4834 110.756 89.6154 110.756ZM87.6714 116.912C88.1754 117.392 88.8234 117.632 89.6154 117.632C90.4074 117.632 91.0494 117.392 91.5414 116.912C92.0454 116.42 92.2974 115.778 92.2974 114.986C92.2974 114.194 92.0454 113.558 91.5414 113.078C91.0494 112.598 90.4074 112.358 89.6154 112.358C88.8114 112.358 88.1634 112.598 87.6714 113.078C87.1794 113.558 86.9334 114.194 86.9334 114.986C86.9334 115.778 87.1794 116.42 87.6714 116.912ZM93.6931 106.4H101.559V107.894L96.9691 119H95.2231L99.7771 107.984H93.6931V106.4ZM108.834 112.484C109.446 112.796 109.926 113.216 110.274 113.744C110.622 114.272 110.796 114.872 110.796 115.544C110.796 116.696 110.394 117.602 109.59 118.262C108.786 118.91 107.748 119.234 106.476 119.234C105.216 119.234 104.184 118.91 103.38 118.262C102.576 117.602 102.174 116.696 102.174 115.544C102.174 114.872 102.348 114.272 102.696 113.744C103.044 113.216 103.524 112.796 104.136 112.484C103.104 111.836 102.588 110.918 102.588 109.73C102.588 108.59 102.966 107.714 103.722 107.102C104.49 106.478 105.408 106.166 106.476 106.166C107.556 106.166 108.474 106.478 109.23 107.102C109.998 107.714 110.382 108.59 110.382 109.73C110.382 110.918 109.866 111.836 108.834 112.484ZM106.476 107.768C105.84 107.768 105.306 107.936 104.874 108.272C104.454 108.608 104.244 109.106 104.244 109.766C104.244 110.402 104.46 110.9 104.892 111.26C105.324 111.608 105.852 111.782 106.476 111.782C107.1 111.782 107.628 111.608 108.06 111.26C108.492 110.9 108.708 110.402 108.708 109.766C108.708 109.106 108.498 108.608 108.078 108.272C107.658 107.936 107.124 107.768 106.476 107.768ZM106.476 117.632C107.28 117.632 107.922 117.446 108.402 117.074C108.894 116.69 109.14 116.144 109.14 115.436C109.14 114.74 108.894 114.206 108.402 113.834C107.922 113.45 107.28 113.258 106.476 113.258C105.684 113.258 105.042 113.45 104.55 113.834C104.07 114.206 103.83 114.74 103.83 115.436C103.83 116.144 104.07 116.69 104.55 117.074C105.042 117.446 105.684 117.632 106.476 117.632Z" fill="white"/>
<path d="M142.18 110.396C142.18 111.368 141.922 112.214 141.406 112.934H141.424L137.356 119H135.466L138.454 114.59C138.19 114.614 137.986 114.626 137.842 114.626C136.57 114.626 135.526 114.236 134.71 113.456C133.906 112.664 133.504 111.644 133.504 110.396C133.504 109.148 133.906 108.134 134.71 107.354C135.526 106.562 136.57 106.166 137.842 106.166C139.114 106.166 140.152 106.562 140.956 107.354C141.772 108.134 142.18 109.148 142.18 110.396ZM135.898 108.488C135.406 108.968 135.16 109.604 135.16 110.396C135.16 111.188 135.406 111.83 135.898 112.322C136.402 112.802 137.05 113.042 137.842 113.042C138.634 113.042 139.276 112.802 139.768 112.322C140.272 111.83 140.524 111.188 140.524 110.396C140.524 109.604 140.278 108.968 139.786 108.488C139.294 108.008 138.646 107.768 137.842 107.768C137.05 107.768 136.402 108.008 135.898 108.488ZM146.25 106.4H147.69V119H146.034V108.2L143.352 108.992L142.938 107.552L146.25 106.4ZM158.354 117.452C157.502 118.64 156.308 119.234 154.772 119.234C153.236 119.234 152.042 118.64 151.19 117.452C150.338 116.264 149.912 114.68 149.912 112.7C149.912 110.72 150.338 109.136 151.19 107.948C152.042 106.76 153.236 106.166 154.772 106.166C156.308 106.166 157.502 106.76 158.354 107.948C159.206 109.136 159.632 110.72 159.632 112.7C159.632 114.68 159.206 116.264 158.354 117.452ZM152.414 116.318C152.966 117.17 153.752 117.596 154.772 117.596C155.792 117.596 156.578 117.17 157.13 116.318C157.694 115.466 157.976 114.26 157.976 112.7C157.976 111.14 157.694 109.934 157.13 109.082C156.578 108.218 155.792 107.786 154.772 107.786C153.752 107.786 152.966 108.212 152.414 109.064C151.862 109.916 151.586 111.128 151.586 112.7C151.586 114.26 151.862 115.466 152.414 116.318ZM163.652 106.4H165.092V119H163.436V108.2L160.754 108.992L160.34 107.552L163.652 106.4Z" fill="white"/>
<path d="M191.564 106.4H193.004V119H191.348V108.2L188.666 108.992L188.252 107.552L191.564 106.4ZM197.98 106.4H199.42V119H197.764V108.2L195.082 108.992L194.668 107.552L197.98 106.4ZM201.48 119V117.632L205.926 113.096C207.114 111.908 207.708 110.888 207.708 110.036C207.708 109.328 207.492 108.776 207.06 108.38C206.628 107.984 206.1 107.786 205.476 107.786C204.288 107.786 203.424 108.35 202.884 109.478L201.48 108.65C201.876 107.834 202.422 107.216 203.118 106.796C203.826 106.376 204.606 106.166 205.458 106.166C206.514 106.166 207.432 106.514 208.212 107.21C208.992 107.906 209.382 108.842 209.382 110.018C209.382 111.29 208.632 112.676 207.132 114.176L203.91 117.38H209.616V119H201.48ZM213.8 106.4H215.24V119H213.584V108.2L210.902 108.992L210.488 107.552L213.8 106.4Z" fill="white"/>
<defs>
<filter id="filter0_d_17_126" x="-51" y="98" width="192.872" height="181.532" filterUnits="userSpaceOnUse" color-interpolation-filters="sRGB">
<feFlood flood-opacity="0" result="BackgroundImageFix"/>
<feColorMatrix in="SourceAlpha" type="matrix" values="0 0 0 0 0 0 0 0 0 0 0 0 0 0 0 0 0 0 127 0" result="hardAlpha"/>
<feOffset dy="-5"/>
<feGaussianBlur stdDeviation="10"/>
<feComposite in2="hardAlpha" operator="out"/>
<feColorMatrix type="matrix" values="0 0 0 0 0.980392 0 0 0 0 0.627451 0 0 0 0 0.235294 0 0 0 1 0"/>
<feBlend mode="normal" in2="BackgroundImageFix" result="effect1_dropShadow_17_126"/>
<feBlend mode="normal" in="SourceGraphic" in2="effect1_dropShadow_17_126" result="shape"/>
</filter>
<filter id="filter1_d_17_126" x="69" y="95" width="77" height="77" filterUnits="userSpaceOnUse" color-interpolation-filters="sRGB">
<feFlood flood-opacity="0" result="BackgroundImageFix"/>
<feColorMatrix in="SourceAlpha" type="matrix" values="0 0 0 0 0 0 0 0 0 0 0 0 0 0 0 0 0 0 127 0" result="hardAlpha"/>
<feOffset dy="5"/>
<feGaussianBlur stdDeviation="10"/>
<feComposite in2="hardAlpha" operator="out"/>
<feColorMatrix type="matrix" values="0 0 0 0 0.980392 0 0 0 0 0.627451 0 0 0 0 0.235294 0 0 0 1 0"/>
<feBlend mode="normal" in2="BackgroundImageFix" result="effect1_dropShadow_17_126"/>
<feBlend mode="normal" in="SourceGraphic" in2="effect1_dropShadow_17_126" result="shape"/>
</filter>
<filter id="filter2_d_17_126" x="97" y="145" width="56" height="56" filterUnits="userSpaceOnUse" color-interpolation-filters="sRGB">
<feFlood flood-opacity="0" result="BackgroundImageFix"/>
<feColorMatrix in="SourceAlpha" type="matrix" values="0 0 0 0 0 0 0 0 0 0 0 0 0 0 0 0 0 0 127 0" result="hardAlpha"/>
<feOffset dy="5"/>
<feGaussianBlur stdDeviation="10"/>
<feComposite in2="hardAlpha" operator="out"/>
<feColorMatrix type="matrix" values="0 0 0 0 0.980392 0 0 0 0 0.627451 0 0 0 0 0.235294 0 0 0 1 0"/>
<feBlend mode="normal" in2="BackgroundImageFix" result="effect1_dropShadow_17_126"/>
<feBlend mode="normal" in="SourceGraphic" in2="effect1_dropShadow_17_126" result="shape"/>
</filter>
<linearGradient id="paint0_linear_17_126" x1="350" y1="110" x2="-5.5262e-06" y2="110" gradientUnits="userSpaceOnUse">
<stop stop-color="#F9C823"/>
<stop offset="0.336458" stop-color="#FAA03C"/>
<stop offset="0.669792" stop-color="#FB7855"/>
<stop offset="1" stop-color="#FC506E"/>
</linearGradient>
<linearGradient id="paint1_linear_17_126" x1="350" y1="110" x2="-5.5262e-06" y2="110" gradientUnits="userSpaceOnUse">
<stop stop-color="#F9C823"/>
<stop offset="0.336458" stop-color="#FAA03C"/>
<stop offset="0.669792" stop-color="#FB7855"/>
<stop offset="1" stop-color="#FC506E"/>
</linearGradient>
<linearGradient id="paint2_linear_17_126" x1="350" y1="110" x2="-5.5262e-06" y2="110" gradientUnits="userSpaceOnUse">
<stop stop-color="#F9C823"/>
<stop offset="0.336458" stop-color="#FAA03C"/>
<stop offset="0.669792" stop-color="#FB7855"/>
<stop offset="1" stop-color="#FC506E"/>
</linearGradient>
<linearGradient id="paint3_linear_17_126" x1="350" y1="110" x2="-5.5262e-06" y2="110" gradientUnits="userSpaceOnUse">
<stop stop-color="#F9C823"/>
<stop offset="0.336458" stop-color="#FAA03C"/>
<stop offset="0.669792" stop-color="#FB7855"/>
<stop offset="1" stop-color="#FC506E"/>
</linearGradient>
<clipPath id="clip0_17_126">
<rect width="50" height="30.3922" fill="white" transform="translate(282 26)"/>
</clipPath>
</defs>
</svg>
